PathFileType	3	(X/Y/Z)	C:\Files\Projects\EMG to Moment Estimation\Newest Patten Data\NSFproject\Patient 4\Session 1\Patient4_Static01.TRC
DataRate	CameraRate	NumFrames	NumMarkers	Units	OrigDataRate	OrigDataStartFrame	OrigNumFrames
100.0	100.0	5	47	mm	100.0	797	910	
Frame#	Time	Patient 4:Sacral		Patient 4:Lumbar		Patient 4:L.Shoulder		Patient 4:Chest		Patient 4:R.Shoulder		Patient 4:Neck		Patient 4:R.ASIS		Patient 4:L.ASIS		Patient 4:R.Thigh.Superior		Patient 4:R.Thigh.Lateral		Patient 4:R.Thigh.Inferior		Patient 4:R.Knee.Lateral		Patient 4:R.Patella		Patient 4:R.Knee.Medial		Patient 4:L.Thigh.Superior		Patient 4:L.Thigh.Lateral		Patient 4:L.Thigh.Inferior		Patient 4:L.Patella		Patient 4:L.Knee.Medial		Patient 4:L.Knee.Lateral		Patient 4:L.Shank.Superior		Patient 4:L.Shank.Lateral		Patient 4:L.Shank.Inferior		Patient 4:L.Ankle.Medial		Patient 4:L.Ankle.Lateral		Patient 4:R.Shank.Superior		Patient 4:R.Shank.Lateral		Patient 4:R.Shank.Inferior		Patient 4:R.Ankle.Lateral		Patient 4:R.Ankle.Medial		Patient 4:R.Heel		Patient 4:R.Midfoot.Superior		Patient 4:R.Midfoot.Lateral		Patient 4:R.Toe.Lateral		Patient 4:R.Toe.Medial		Patient 4:R.Toe		Patient 4:L.Heel		Patient 4:L.Midfoot.Lateral		Patient 4:L.Toe.Lateral		Patient 4:L.Midfoot.Superior		Patient 4:L.Toe		Patient 4:L.Toe.Medial		Patient 4:L.Elbow		Patient 4:L.Wrist		Patient 4:R.Elbow		Patient 4:R.Wrist		Patient 4:Ground		
		X1	Y1	Z1	X2	Y2	Z2	X3	Y3	Z3	X4	Y4	Z4	X5	Y5	Z5	X6	Y6	Z6	X7	Y7	Z7	X8	Y8	Z8	X9	Y9	Z9	X10	Y10	Z10	X11	Y11	Z11	X12	Y12	Z12	X13	Y13	Z13	X14	Y14	Z14	X15	Y15	Z15	X16	Y16	Z16	X17	Y17	Z17	X18	Y18	Z18	X19	Y19	Z19	X20	Y20	Z20	X21	Y21	Z21	X22	Y22	Z22	X23	Y23	Z23	X24	Y24	Z24	X25	Y25	Z25	X26	Y26	Z26	X27	Y27	Z27	X28	Y28	Z28	X29	Y29	Z29	X30	Y30	Z30	X31	Y31	Z31	X32	Y32	Z32	X33	Y33	Z33	X34	Y34	Z34	X35	Y35	Z35	X36	Y36	Z36	X37	Y37	Z37	X38	Y38	Z38	X39	Y39	Z39	X40	Y40	Z40	X41	Y41	Z41	X42	Y42	Z42	X43	Y43	Z43	X44	Y44	Z44	X45	Y45	Z45	X46	Y46	Z46	X47	Y47	Z47	
797	7.96	524.92004	992.68457	-644.6076	521.90833	1061.7972	-654.67407	353.47601	1440.5293	-743.68231	511.62451	1379.6016	-854.13586	690.53284	1433.4888	-767.47876	508.62039	1495.0078	-725.76563	635.77344	947.00836	-882.60541	359.51346	973.23816	-856.3139	603.47876	740.27228	-909.10516	672.71808	637.27637	-823.46509	590.59814	575.75134	-886.18903	653.18243	485.28839	-836.66711	596.45721	485.73859	-877.37537	545.40375	462.83542	-813.51215	366.00998	749.24323	-889.07837	300.75156	650.66473	-782.3609	348.66278	557.47632	-857.82288	351.49423	487.62445	-850.61176	400.26816	489.69543	-818.85864	300.30176	510.13666	-804.43915	333.36884	420.02328	-824.82532	267.01663	315.67627	-733.02069	322.52939	194.47006	-782.05579	365.42987	96.432503	-741.91229	277.54596	85.347992	-717.94427	611.71088	398.71152	-845.31073	689.71387	303.8121	-776.57953	624.15405	203.18948	-800.30023	669.48346	85.115822	-735.73224	577.26941	106.04832	-749.05109	625.1864	43.84267	-652.91187	630.56683	97.713768	-827.92084	684.35193	36.949562	-747.5611	696.01257	31.72044	-834.06024	576.88129	29.254198	-859.3736	639.0838	44.741207	-951.03778	333.68869	38.365616	-651.05768	263.9296	35.238739	-735.48694	242.36719	33.49292	-830.67279	300.65643	96.305481	-814.02167	291.40576	45.307777	-945.04675	357.3017	27.324421	-855.81635	243.02147	1082.526	-740.6438	241.20203	826.25238	-785.3186	779.5722	1075.3719	-754.0824	751.85419	823.76617	-815.93317	329.07742	9.6584196	-147.16589
798	7.97	524.88196	992.74896	-644.53174	521.93494	1061.7688	-654.73022	353.46542	1440.5358	-743.72882	511.64014	1379.5955	-854.17303	690.51123	1433.5138	-767.54193	508.60022	1495.0116	-725.81885	635.76801	946.99268	-882.61005	359.53806	973.23175	-856.32043	603.47986	740.28754	-909.12469	672.70428	637.2738	-823.47791	590.60138	575.74524	-886.20752	653.18286	485.28903	-836.66693	596.45715	485.73184	-877.37946	545.41907	462.80975	-813.50824	366.02454	749.24548	-889.10449	300.77435	650.66095	-782.37109	348.6546	557.48779	-857.84991	351.47076	487.64069	-850.62744	400.25916	489.70627	-818.85846	300.32077	510.13489	-804.44287	333.37537	420.01407	-824.83887	267.04343	315.65479	-733.0257	322.51227	194.47778	-782.05811	365.42429	96.438461	-741.92487	277.55515	85.345589	-717.94061	611.70221	398.71222	-845.31799	689.70081	303.80884	-776.57849	624.13831	203.19263	-800.31464	669.44537	85.095779	-735.71655	577.26599	106.03492	-749.08044	625.19196	43.846012	-652.88336	630.58203	97.706917	-827.91339	684.43817	37.003422	-747.6156	696.01257	31.711918	-834.03351	576.87018	29.253859	-859.37512	639.10382	44.742813	-951.02295	333.68964	38.35408	-651.08734	263.94247	35.236649	-735.49915	242.38098	33.509987	-830.67639	300.65134	96.30542	-814.02283	291.40277	45.300659	-945.05438	357.27225	27.364389	-855.81702	243.0406	1082.5172	-740.7099	241.20363	826.24109	-785.35779	779.56018	1075.3795	-754.09412	751.84637	823.77502	-815.94702	329.05826	9.6646376	-147.17003
799	7.98	524.81824	992.73761	-644.50891	521.92285	1061.7913	-654.73865	353.48322	1440.5189	-743.79047	511.61795	1379.5922	-854.21954	690.50891	1433.5098	-767.55896	508.57092	1495.0164	-725.87421	635.77234	946.97302	-882.64551	359.51236	973.22729	-856.362	603.4798	740.26532	-909.12958	672.68506	637.26642	-823.49487	590.61517	575.7265	-886.22406	653.20538	485.29883	-836.68408	596.47797	485.73615	-877.40021	545.39551	462.81729	-813.50653	366.01953	749.22382	-889.11578	300.76141	650.66205	-782.38452	348.66144	557.48114	-857.84509	351.48877	487.63214	-850.63416	400.24652	489.70386	-818.84235	300.31528	510.12485	-804.48273	333.37418	420.01788	-824.85083	267.04556	315.64407	-733.0387	322.52103	194.46935	-782.05792	365.42517	96.451355	-741.93378	277.53973	85.352921	-717.9505	611.70935	398.69449	-845.31116	689.69806	303.81161	-776.58099	624.14386	203.19647	-800.30829	669.45807	85.120621	-735.73492	577.2962	105.97586	-749.01221	625.17761	43.842533	-652.89362	630.56525	97.716118	-827.92206	684.38196	36.967148	-747.57813	696.01331	31.704054	-834.02313	576.86865	29.233658	-859.36707	639.08612	44.73251	-951.03339	333.71173	38.329708	-651.08643	263.93732	35.246597	-735.50745	242.36435	33.515705	-830.68921	300.64902	96.299568	-814.02368	291.40384	45.303276	-945.03516	357.31506	27.331684	-855.81598	243.0081	1082.5194	-740.75818	241.19856	826.23535	-785.39093	779.56122	1075.4084	-754.10901	751.86243	823.78101	-815.94653	329.06949	9.6610279	-147.16386
800	7.99	524.81946	992.78619	-644.53748	521.90564	1061.8164	-654.77972	353.45651	1440.5175	-743.84656	511.62881	1379.5786	-854.25385	690.49506	1433.5302	-767.61871	508.57706	1495.0005	-725.9281	635.79999	946.99652	-882.67688	359.50339	973.23804	-856.40771	603.49603	740.2735	-909.15204	672.66913	637.28448	-823.47772	590.61682	575.74109	-886.2384	653.21442	485.30768	-836.6936	596.47443	485.72415	-877.40497	545.41907	462.80948	-813.50787	366.02609	749.21478	-889.14124	300.75079	650.66772	-782.38898	348.66724	557.46423	-857.86053	351.48865	487.62299	-850.6424	400.2464	489.70358	-818.84186	300.31458	510.12485	-804.48358	333.36642	420.00009	-824.85217	267.0347	315.65973	-733.03809	322.52597	194.45711	-782.05945	365.4277	96.448486	-741.93378	277.53613	85.331573	-717.93744	611.73053	398.72296	-845.35571	689.73248	303.81973	-776.61578	624.14099	203.16597	-800.30756	669.45251	85.112953	-735.72186	577.31696	105.96959	-749.01691	625.1958	43.842743	-652.89117	630.53754	97.708595	-827.97876	684.38251	36.961201	-747.5965	695.98865	31.711414	-834.03204	576.8689	29.23336	-859.36688	639.09521	44.731232	-951.03186	333.69031	38.350758	-651.06329	263.92831	35.233589	-735.49176	242.35126	33.519157	-830.68286	300.66415	96.291901	-814.0188	291.38849	45.292572	-945.04645	357.26004	27.325275	-855.82751	243.01047	1082.5281	-740.82172	241.19081	826.25116	-785.43939	779.56738	1075.4111	-754.11346	751.85773	823.80011	-815.95398	329.06277	9.671792	-147.15781
801	8	524.80377	992.82739	-644.51843	521.90045	1061.8212	-654.81067	353.44266	1440.5333	-743.91687	511.61313	1379.588	-854.32062	690.49359	1433.524	-767.62775	508.53909	1495.0155	-725.98273	635.815	947.00586	-882.71204	359.508	973.23511	-856.42078	603.48529	740.28082	-909.1626	672.66547	637.27118	-823.48346	590.61578	575.73425	-886.24823	653.20477	485.30493	-836.70764	596.47479	485.71506	-877.40924	545.41705	462.8118	-813.53857	366.02209	749.21149	-889.16302	300.74402	650.6712	-782.41705	348.64255	557.47882	-857.87848	351.46979	487.60626	-850.65436	400.2746	489.70853	-818.8916	300.31757	510.11115	-804.51825	333.37173	420.0036	-824.8681	267.02087	315.66498	-733.0542	322.5231	194.4624	-782.06158	365.43756	96.465065	-741.9502	277.53506	85.35405	-717.93536	611.71948	398.71106	-845.35052	689.70276	303.80637	-776.61768	624.13257	203.18829	-800.32043	669.42456	85.110023	-735.71423	577.31531	106.00867	-749.03162	625.18561	43.846035	-652.89832	630.55981	97.72274	-827.93945	684.37964	36.96526	-747.57648	696.00604	31.717937	-834.03088	576.85126	29.240252	-859.36353	639.08826	44.722359	-951.02905	333.6965	38.341789	-651.07349	263.91925	35.240868	-735.49652	242.35539	33.516117	-830.68329	300.64294	96.309441	-814.02936	291.40384	45.294258	-945.03687	357.25012	27.311825	-855.81	242.99425	1082.5238	-740.86707	241.1866	826.24664	-785.47498	779.55768	1075.4098	-754.10413	751.85266	823.80615	-815.94183	329.06247	9.6588373	-147.16206
